<svg height="512" viewBox="0 0 60 56" width="512" xmlns="http://www.w3.org/2000/svg"><g id="Page-1" fill="none" fill-rule="evenodd"><g id="024---Rising-River-Levels" fill="rgb(0,0,0)" fill-rule="nonzero"><path id="Shape" d="m49.329 40c-1.917821.0355552-3.7968399-.5425506-5.363-1.65-2.5888804-1.7999615-6.0241196-1.7999615-8.613 0-1.5651418 1.1072187-3.4431396 1.6853337-5.36 1.65-1.9171411.0351272-3.7953938-.5429585-5.361-1.65-1.247534-.9118493-2.7611747-1.3863999-4.306-1.35-1.5428173-.0352967-3.0542099.4392103-4.3 1.35-1.566218 1.1080988-3.4457699 1.6862607-5.364 1.65-1.91760957.0362538-3.79652365-.5419275-5.362-1.65-1.24582424-.9107222-2.75719334-1.3852218-4.3-1.35-.55228475 0-1-.4477153-1-1s.44771525-1 1-1c1.91653031-.0351898 3.79416634.5429217 5.359 1.65 1.24558525.9111953 2.75711906 1.3857466 4.3 1.35 1.5428279.0353716 3.054244-.4391427 4.3-1.35 1.5672676-1.1082657 3.4478192-1.6864118 5.367-1.65 1.9171411-.0351272 3.7953938.5429585 5.361 1.65 1.247534.9118493 2.7611747 1.3863999 4.306 1.35 1.5452182.0369971 3.0593634-.4376015 4.307-1.35 3.2358247-2.1999478 7.4871753-2.1999478 10.723 0 2.5899981 1.7998993 6.0260019 1.7998993 8.616 0 1.5656062-1.1070415 3.4438589-1.6851272 5.361-1.65.5522847 0 1 .4477153 1 1s-.4477153 1-1 1c-1.5454629-.0365426-3.0597822.4380004-4.308 1.35-1.5661601 1.1074494-3.445179 1.6855552-5.363 1.65z"/><path id="Shape" d="m49.329 46c-1.917821.0355552-3.7968399-.5425506-5.363-1.65-2.5888804-1.7999615-6.0241196-1.7999615-8.613 0-1.5651418 1.1072187-3.4431396 1.6853337-5.36 1.65-1.9171411.0351272-3.7953938-.5429585-5.361-1.65-1.247534-.9118493-2.7611747-1.3863999-4.306-1.35-1.5428173-.0352967-3.0542099.4392103-4.3 1.35-1.566218 1.1080988-3.4457699 1.6862607-5.364 1.65-1.91760957.0362538-3.79652365-.5419275-5.362-1.65-1.24582424-.9107222-2.75719334-1.3852218-4.3-1.35-.55228475 0-1-.4477153-1-1s.44771525-1 1-1c1.91653031-.0351898 3.79416634.5429217 5.359 1.65 1.24558525.9111953 2.75711906 1.3857466 4.3 1.35 1.5428279.0353716 3.054244-.4391427 4.3-1.35 1.5672676-1.1082657 3.4478192-1.6864118 5.367-1.65 1.9171411-.0351272 3.7953938.5429585 5.361 1.65 1.247534.9118493 2.7611747 1.3863999 4.306 1.35 1.5452182.0369971 3.0593634-.4376015 4.307-1.35 3.2358247-2.1999478 7.4871753-2.1999478 10.723 0 2.5899981 1.7998993 6.0260019 1.7998993 8.616 0 1.5656062-1.1070415 3.4438589-1.6851272 5.361-1.65.5522847 0 1 .4477153 1 1s-.4477153 1-1 1c-1.5454629-.0365426-3.0597822.4380004-4.308 1.35-1.5661601 1.1074494-3.445179 1.6855552-5.363 1.65z"/><path id="Shape" d="m49.329 52c-1.917821.0355552-3.7968399-.5425506-5.363-1.65-2.5888804-1.7999615-6.0241196-1.7999615-8.613 0-1.5651418 1.1072187-3.4431396 1.6853337-5.36 1.65-1.9171411.0351272-3.7953938-.5429585-5.361-1.65-1.247534-.9118493-2.7611747-1.3863999-4.306-1.35-1.5428173-.0352967-3.0542099.4392103-4.3 1.35-1.566218 1.1080988-3.4457699 1.6862607-5.364 1.65-1.91760957.0362538-3.79652365-.5419275-5.362-1.65-1.24582424-.9107222-2.75719334-1.3852218-4.3-1.35-.55228475 0-1-.4477153-1-1s.44771525-1 1-1c1.91653031-.0351898 3.79416634.5429217 5.359 1.65 1.24558525.9111953 2.75711906 1.3857466 4.3 1.35 1.5428279.0353716 3.054244-.4391427 4.3-1.35 1.5672676-1.1082657 3.4478192-1.6864118 5.367-1.65 1.9171411-.0351272 3.7953938.5429585 5.361 1.65 1.247534.9118493 2.7611747 1.3863999 4.306 1.35 1.5452182.0369971 3.0593634-.4376015 4.307-1.35 3.2358247-2.1999478 7.4871753-2.1999478 10.723 0 2.5899981 1.7998993 6.0260019 1.7998993 8.616 0 1.5656062-1.1070415 3.4438589-1.6851272 5.361-1.65.5522847 0 1 .4477153 1 1s-.4477153 1-1 1c-1.5454629-.0365426-3.0597822.4380004-4.308 1.35-1.5661601 1.1074494-3.445179 1.6855552-5.363 1.65z"/><path id="Shape" d="m29.99 53c-2.100679.0343979-4.1585558-.5955644-5.88-1.8-.0380761-.0210409-.0748131-.0444189-.11-.07v3.87c0 .5522847.4477153 1 1 1h10c.5522847 0 1-.4477153 1-1v-3.87c-.0420903.0195499-.0822644.0429848-.12.07-1.7245275 1.2058315-3.7860178 1.8358286-5.89 1.8zm5.89-7.8c-1.7245275 1.2058315-3.7860178 1.8358286-5.89 1.8-2.100679.0343979-4.1585558-.5955644-5.88-1.8-.0380761-.0210409-.0748131-.0444189-.11-.07v1.51c.7743483.3101792 1.5148811.6988752 2.21 1.16 1.0899585.812225 2.4211378 1.2348217 3.78 1.2 1.3593384.0381946 2.691598-.384745 3.78-1.2.7040826-.4606284 1.4508577-.8524341 2.23-1.17v-1.5c-.0420903.0195499-.0822644.0429848-.12.07zm0-6c-1.7245275 1.2058315-3.7860178 1.8358286-5.89 1.8-2.100679.0343979-4.1585558-.5955644-5.88-1.8-.0380761-.0210409-.0748131-.0444189-.11-.07v1.51c.7743483.3101792 1.5148811.6988752 2.21 1.16 1.0899585.812225 2.4211378 1.2348217 3.78 1.2 1.3593384.0381946 2.691598-.384745 3.78-1.2.7040826-.4606284 1.4508577-.8524341 2.23-1.17v-1.5c-.0420903.0195499-.0822644.0429848-.12.07zm5.91-24.82-11-13.99c-.1872793-.24708606-.4799636-.39157579-.79-.39-.3077803-.00165795-.5991779.13850795-.79.38l-11 14.01c-.2321692.3015898-.2730081.7088268-.1053486 1.0505127.1676595.3416858.5147463.5585742.8953486.5594873h10.15c.5522847 0 1 .4477153 1 1s-.4477153 1-1 1h-5.15v1.98h2.15c.5522847 0 1 .4477153 1 1s-.4477153 1-1 1h-2.15v2h5.15c.5522847 0 1 .4477153 1 1s-.4477153 1-1 1h-5.15v2h2.15c.5522847 0 1 .4477153 1 1s-.4477153 1-1 1h-2.15v4.66c.7733542.3123304 1.5136753.7009153 2.21 1.16 1.0899585.812225 2.4211378 1.2348217 3.78 1.2 1.3593384.0381946 2.691598-.384745 3.78-1.2.7040826-.4606284 1.4508577-.8524341 2.23-1.17v-17.63c0-.5522847.4477153-1 1-1h4c.3834979.0046776.7347692-.2138912.9-.56.1703429-.3450661.1275676-.7572642-.11-1.06z"/></g></g></svg>